<?xml version="1.0" encoding="utf-8"?>
<!-- Generator: Adobe Illustrator 23.0.2, SVG Export Plug-In . SVG Version: 6.00 Build 0)  -->
<svg version="1.1" id="Layer_1" xmlns="http://www.w3.org/2000/svg" xmlns:xlink="http://www.w3.org/1999/xlink" x="0px" y="0px"
	 viewBox="0 0 44 41.85" style="enable-background:new 0 0 44 41.85;" xml:space="preserve">
<style type="text/css">
	.st0{fill:#010101;}
</style>
<g>
	<g>
		<g>
			<path class="st0" d="M5.76,30.03c6.22-8.33,12.44-16.67,18.67-25c2.31-3.1-2.89-6.09-5.18-3.03C13.03,10.33,6.81,18.67,0.58,27
				C-1.74,30.1,3.47,33.1,5.76,30.03L5.76,30.03z"/>
		</g>
	</g>
	<g>
		<g>
			<path class="st0" d="M43.42,27.01c-6.22-8.33-12.44-16.67-18.67-25c-2.28-3.06-7.49-0.07-5.18,3.03
				c6.22,8.33,12.44,16.67,18.67,25C40.53,33.09,45.74,30.1,43.42,27.01L43.42,27.01z"/>
		</g>
	</g>
</g>
<g>
	<g>
		<path d="M30,17.94c0,6.91,0,13.83,0,20.74c0,3.22,5,3.22,5,0c0-6.91,0-13.83,0-20.74C35,14.73,30,14.72,30,17.94L30,17.94z"/>
	</g>
</g>
<g>
	<g>
		<path d="M9.59,17.94c0,6.91,0,13.83,0,20.74c0,3.22,5,3.22,5,0c0-6.91,0-13.83,0-20.74C14.59,14.73,9.59,14.72,9.59,17.94
			L9.59,17.94z"/>
	</g>
</g>
<g>
	<g>
		<path d="M12.68,41.18c6.56,0,13.11,0,19.67,0c3.22,0,3.22-5,0-5c-6.56,0-13.11,0-19.67,0C9.47,36.18,9.46,41.18,12.68,41.18
			L12.68,41.18z"/>
	</g>
</g>
</svg>
